<mxfile host="app.diagrams.net" modified="2022-07-01T19:05:45.331Z" agent="5.0 (Windows NT 10.0; Win64; x64) AppleWebKit/537.36 (KHTML, like Gecko) Chrome/103.0.5060.53 Safari/537.36 Edg/103.0.1264.37" etag="JuhjqlK_p60RRS3putgN" version="20.0.4" type="github">
  <diagram id="C5RBs43oDa-KdzZeNtuy" name="Page-1">
    <mxGraphModel dx="782" dy="468" grid="1" gridSize="10" guides="1" tooltips="1" connect="1" arrows="1" fold="1" page="1" pageScale="1" pageWidth="827" pageHeight="1169" math="0" shadow="0">
      <root>
        <mxCell id="WIyWlLk6GJQsqaUBKTNV-0" />
        <mxCell id="WIyWlLk6GJQsqaUBKTNV-1" parent="WIyWlLk6GJQsqaUBKTNV-0" />
        <mxCell id="LNCcRjCM3wwA3M9pp7GL-0" value="Reederei" style="swimlane;fontStyle=1;align=center;verticalAlign=top;childLayout=stackLayout;horizontal=1;startSize=26;horizontalStack=0;resizeParent=1;resizeParentMax=0;resizeLast=0;collapsible=1;marginBottom=0;" parent="WIyWlLk6GJQsqaUBKTNV-1" vertex="1">
          <mxGeometry x="290" y="80" width="160" height="52" as="geometry" />
        </mxCell>
        <mxCell id="LNCcRjCM3wwA3M9pp7GL-59" style="edgeStyle=orthogonalEdgeStyle;rounded=0;orthogonalLoop=1;jettySize=auto;html=1;exitX=0.5;exitY=0;exitDx=0;exitDy=0;entryX=1;entryY=0.25;entryDx=0;entryDy=0;endArrow=none;endFill=0;elbow=vertical;" parent="WIyWlLk6GJQsqaUBKTNV-1" source="LNCcRjCM3wwA3M9pp7GL-4" target="LNCcRjCM3wwA3M9pp7GL-0" edge="1">
          <mxGeometry relative="1" as="geometry" />
        </mxCell>
        <mxCell id="LNCcRjCM3wwA3M9pp7GL-4" value="Seemann" style="swimlane;fontStyle=1;align=center;verticalAlign=top;childLayout=stackLayout;horizontal=1;startSize=26;horizontalStack=0;resizeParent=1;resizeParentMax=0;resizeLast=0;collapsible=1;marginBottom=0;" parent="WIyWlLk6GJQsqaUBKTNV-1" vertex="1">
          <mxGeometry x="550" y="140" width="160" height="52" as="geometry" />
        </mxCell>
        <mxCell id="LNCcRjCM3wwA3M9pp7GL-5" value="+ name: String" style="text;strokeColor=none;fillColor=none;align=left;verticalAlign=top;spacingLeft=4;spacingRight=4;overflow=hidden;rotatable=0;points=[[0,0.5],[1,0.5]];portConstraint=eastwest;" parent="LNCcRjCM3wwA3M9pp7GL-4" vertex="1">
          <mxGeometry y="26" width="160" height="26" as="geometry" />
        </mxCell>
        <mxCell id="LNCcRjCM3wwA3M9pp7GL-45" style="edgeStyle=orthogonalEdgeStyle;rounded=0;orthogonalLoop=1;jettySize=auto;html=1;exitX=0.5;exitY=0;exitDx=0;exitDy=0;entryX=-0.006;entryY=0.269;entryDx=0;entryDy=0;entryPerimeter=0;elbow=vertical;endArrow=none;endFill=0;" parent="WIyWlLk6GJQsqaUBKTNV-1" source="LNCcRjCM3wwA3M9pp7GL-20" edge="1">
          <mxGeometry relative="1" as="geometry">
            <mxPoint x="289.0400000000001" y="112.99400000000003" as="targetPoint" />
            <Array as="points">
              <mxPoint x="180" y="113" />
            </Array>
          </mxGeometry>
        </mxCell>
        <mxCell id="LNCcRjCM3wwA3M9pp7GL-20" value="Schiff" style="swimlane;fontStyle=1;align=center;verticalAlign=top;childLayout=stackLayout;horizontal=1;startSize=26;horizontalStack=0;resizeParent=1;resizeParentMax=0;resizeLast=0;collapsible=1;marginBottom=0;" parent="WIyWlLk6GJQsqaUBKTNV-1" vertex="1">
          <mxGeometry x="100" y="190" width="160" height="52" as="geometry" />
        </mxCell>
        <mxCell id="LNCcRjCM3wwA3M9pp7GL-21" value="+ name: String" style="text;strokeColor=none;fillColor=none;align=left;verticalAlign=top;spacingLeft=4;spacingRight=4;overflow=hidden;rotatable=0;points=[[0,0.5],[1,0.5]];portConstraint=eastwest;" parent="LNCcRjCM3wwA3M9pp7GL-20" vertex="1">
          <mxGeometry y="26" width="160" height="26" as="geometry" />
        </mxCell>
        <mxCell id="LNCcRjCM3wwA3M9pp7GL-74" style="edgeStyle=orthogonalEdgeStyle;rounded=0;orthogonalLoop=1;jettySize=auto;html=1;exitX=0.5;exitY=1;exitDx=0;exitDy=0;entryX=0.798;entryY=1.038;entryDx=0;entryDy=0;entryPerimeter=0;endArrow=none;endFill=0;strokeWidth=1;elbow=vertical;" parent="WIyWlLk6GJQsqaUBKTNV-1" source="LNCcRjCM3wwA3M9pp7GL-24" target="LNCcRjCM3wwA3M9pp7GL-21" edge="1">
          <mxGeometry relative="1" as="geometry" />
        </mxCell>
        <mxCell id="LNCcRjCM3wwA3M9pp7GL-24" value="Matrose" style="swimlane;fontStyle=1;align=center;verticalAlign=top;childLayout=stackLayout;horizontal=1;startSize=26;horizontalStack=0;resizeParent=1;resizeParentMax=0;resizeLast=0;collapsible=1;marginBottom=0;" parent="WIyWlLk6GJQsqaUBKTNV-1" vertex="1">
          <mxGeometry x="650" y="270" width="160" height="52" as="geometry" />
        </mxCell>
        <mxCell id="LNCcRjCM3wwA3M9pp7GL-69" style="edgeStyle=orthogonalEdgeStyle;rounded=0;orthogonalLoop=1;jettySize=auto;html=1;exitX=0;exitY=0.5;exitDx=0;exitDy=0;entryX=1;entryY=0.5;entryDx=0;entryDy=0;endArrow=none;endFill=0;strokeWidth=1;elbow=vertical;" parent="WIyWlLk6GJQsqaUBKTNV-1" source="LNCcRjCM3wwA3M9pp7GL-28" target="LNCcRjCM3wwA3M9pp7GL-20" edge="1">
          <mxGeometry relative="1" as="geometry">
            <Array as="points">
              <mxPoint x="390" y="296" />
              <mxPoint x="390" y="216" />
            </Array>
          </mxGeometry>
        </mxCell>
        <mxCell id="LNCcRjCM3wwA3M9pp7GL-28" value="Kapitän" style="swimlane;fontStyle=1;align=center;verticalAlign=top;childLayout=stackLayout;horizontal=1;startSize=26;horizontalStack=0;resizeParent=1;resizeParentMax=0;resizeLast=0;collapsible=1;marginBottom=0;" parent="WIyWlLk6GJQsqaUBKTNV-1" vertex="1">
          <mxGeometry x="450" y="270" width="160" height="52" as="geometry" />
        </mxCell>
        <mxCell id="LNCcRjCM3wwA3M9pp7GL-36" value="" style="endArrow=block;endSize=16;endFill=0;html=1;rounded=0;exitX=0.219;exitY=-0.014;exitDx=0;exitDy=0;exitPerimeter=0;entryX=0.573;entryY=0.991;entryDx=0;entryDy=0;entryPerimeter=0;edgeStyle=orthogonalEdgeStyle;" parent="WIyWlLk6GJQsqaUBKTNV-1" source="LNCcRjCM3wwA3M9pp7GL-24" target="LNCcRjCM3wwA3M9pp7GL-5" edge="1">
          <mxGeometry width="160" relative="1" as="geometry">
            <mxPoint x="580" y="270" as="sourcePoint" />
            <mxPoint x="640" y="210" as="targetPoint" />
          </mxGeometry>
        </mxCell>
        <mxCell id="LNCcRjCM3wwA3M9pp7GL-38" value="" style="endArrow=block;endSize=16;endFill=0;html=1;rounded=0;exitX=0.624;exitY=-0.005;exitDx=0;exitDy=0;exitPerimeter=0;entryX=0.572;entryY=0.986;entryDx=0;entryDy=0;entryPerimeter=0;edgeStyle=orthogonalEdgeStyle;" parent="WIyWlLk6GJQsqaUBKTNV-1" source="LNCcRjCM3wwA3M9pp7GL-28" target="LNCcRjCM3wwA3M9pp7GL-5" edge="1">
          <mxGeometry width="160" relative="1" as="geometry">
            <mxPoint x="550" y="260" as="sourcePoint" />
            <mxPoint x="632.0799999999999" y="226.28600000000006" as="targetPoint" />
          </mxGeometry>
        </mxCell>
        <mxCell id="LNCcRjCM3wwA3M9pp7GL-44" value="0..1" style="text;html=1;strokeColor=none;fillColor=none;align=center;verticalAlign=middle;whiteSpace=wrap;rounded=0;" parent="WIyWlLk6GJQsqaUBKTNV-1" vertex="1">
          <mxGeometry x="260" y="91" width="30" height="30" as="geometry" />
        </mxCell>
        <mxCell id="LNCcRjCM3wwA3M9pp7GL-46" value="im Besitz von" style="text;html=1;strokeColor=none;fillColor=none;align=center;verticalAlign=middle;whiteSpace=wrap;rounded=0;" parent="WIyWlLk6GJQsqaUBKTNV-1" vertex="1">
          <mxGeometry x="160" y="91" width="80" height="30" as="geometry" />
        </mxCell>
        <mxCell id="LNCcRjCM3wwA3M9pp7GL-47" value="Logbuch" style="swimlane;fontStyle=1;align=center;verticalAlign=top;childLayout=stackLayout;horizontal=1;startSize=26;horizontalStack=0;resizeParent=1;resizeParentMax=0;resizeLast=0;collapsible=1;marginBottom=0;" parent="WIyWlLk6GJQsqaUBKTNV-1" vertex="1">
          <mxGeometry x="100" y="356" width="160" height="52" as="geometry" />
        </mxCell>
        <mxCell id="LNCcRjCM3wwA3M9pp7GL-51" value="" style="endArrow=diamondThin;endFill=1;endSize=24;html=1;rounded=0;elbow=vertical;exitX=0.5;exitY=0;exitDx=0;exitDy=0;" parent="WIyWlLk6GJQsqaUBKTNV-1" source="LNCcRjCM3wwA3M9pp7GL-47" target="LNCcRjCM3wwA3M9pp7GL-21" edge="1">
          <mxGeometry width="160" relative="1" as="geometry">
            <mxPoint x="240" y="230" as="sourcePoint" />
            <mxPoint x="180" y="276" as="targetPoint" />
          </mxGeometry>
        </mxCell>
        <mxCell id="LNCcRjCM3wwA3M9pp7GL-52" value="1" style="text;html=1;strokeColor=none;fillColor=none;align=center;verticalAlign=middle;whiteSpace=wrap;rounded=0;" parent="WIyWlLk6GJQsqaUBKTNV-1" vertex="1">
          <mxGeometry x="185" y="240" width="30" height="30" as="geometry" />
        </mxCell>
        <mxCell id="LNCcRjCM3wwA3M9pp7GL-54" value="1" style="text;html=1;strokeColor=none;fillColor=none;align=center;verticalAlign=middle;whiteSpace=wrap;rounded=0;" parent="WIyWlLk6GJQsqaUBKTNV-1" vertex="1">
          <mxGeometry x="185" y="326" width="30" height="30" as="geometry" />
        </mxCell>
        <mxCell id="LNCcRjCM3wwA3M9pp7GL-55" value="Eintrag" style="swimlane;fontStyle=1;align=center;verticalAlign=top;childLayout=stackLayout;horizontal=1;startSize=26;horizontalStack=0;resizeParent=1;resizeParentMax=0;resizeLast=0;collapsible=1;marginBottom=0;" parent="WIyWlLk6GJQsqaUBKTNV-1" vertex="1">
          <mxGeometry x="100" y="450" width="160" height="70" as="geometry" />
        </mxCell>
        <mxCell id="LNCcRjCM3wwA3M9pp7GL-56" value="+ inhalt: String&#xa;+ datum: Date&#xa;" style="text;strokeColor=none;fillColor=none;align=left;verticalAlign=top;spacingLeft=4;spacingRight=4;overflow=hidden;rotatable=0;points=[[0,0.5],[1,0.5]];portConstraint=eastwest;" parent="LNCcRjCM3wwA3M9pp7GL-55" vertex="1">
          <mxGeometry y="26" width="160" height="44" as="geometry" />
        </mxCell>
        <mxCell id="LNCcRjCM3wwA3M9pp7GL-60" value="arbeitet für" style="text;html=1;strokeColor=none;fillColor=none;align=center;verticalAlign=middle;whiteSpace=wrap;rounded=0;" parent="WIyWlLk6GJQsqaUBKTNV-1" vertex="1">
          <mxGeometry x="550" y="70" width="70" height="30" as="geometry" />
        </mxCell>
        <mxCell id="LNCcRjCM3wwA3M9pp7GL-61" value="0..1" style="text;html=1;strokeColor=none;fillColor=none;align=center;verticalAlign=middle;whiteSpace=wrap;rounded=0;" parent="WIyWlLk6GJQsqaUBKTNV-1" vertex="1">
          <mxGeometry x="450" y="70" width="30" height="30" as="geometry" />
        </mxCell>
        <mxCell id="LNCcRjCM3wwA3M9pp7GL-63" value="1" style="text;html=1;strokeColor=none;fillColor=none;align=center;verticalAlign=middle;whiteSpace=wrap;rounded=0;" parent="WIyWlLk6GJQsqaUBKTNV-1" vertex="1">
          <mxGeometry x="170" y="162" width="30" height="30" as="geometry" />
        </mxCell>
        <mxCell id="LNCcRjCM3wwA3M9pp7GL-65" value="" style="endArrow=classic;html=1;rounded=0;elbow=vertical;strokeWidth=2;" parent="WIyWlLk6GJQsqaUBKTNV-1" edge="1">
          <mxGeometry width="50" height="50" relative="1" as="geometry">
            <mxPoint x="250" y="105.67000000000002" as="sourcePoint" />
            <mxPoint x="255" y="106" as="targetPoint" />
          </mxGeometry>
        </mxCell>
        <mxCell id="LNCcRjCM3wwA3M9pp7GL-67" value="" style="endArrow=classic;html=1;rounded=0;elbow=vertical;strokeWidth=2;" parent="WIyWlLk6GJQsqaUBKTNV-1" edge="1">
          <mxGeometry width="50" height="50" relative="1" as="geometry">
            <mxPoint x="550" y="84.85999999999999" as="sourcePoint" />
            <mxPoint x="540" y="84.85999999999999" as="targetPoint" />
          </mxGeometry>
        </mxCell>
        <mxCell id="LNCcRjCM3wwA3M9pp7GL-68" value="1" style="text;html=1;strokeColor=none;fillColor=none;align=center;verticalAlign=middle;whiteSpace=wrap;rounded=0;" parent="WIyWlLk6GJQsqaUBKTNV-1" vertex="1">
          <mxGeometry x="620" y="110" width="30" height="30" as="geometry" />
        </mxCell>
        <mxCell id="LNCcRjCM3wwA3M9pp7GL-70" value="befehligt" style="text;html=1;strokeColor=none;fillColor=none;align=center;verticalAlign=middle;whiteSpace=wrap;rounded=0;" parent="WIyWlLk6GJQsqaUBKTNV-1" vertex="1">
          <mxGeometry x="334" y="192" width="80" height="30" as="geometry" />
        </mxCell>
        <mxCell id="LNCcRjCM3wwA3M9pp7GL-71" value="" style="endArrow=classic;html=1;rounded=0;elbow=vertical;strokeWidth=2;" parent="WIyWlLk6GJQsqaUBKTNV-1" edge="1">
          <mxGeometry width="50" height="50" relative="1" as="geometry">
            <mxPoint x="344" y="206.67000000000002" as="sourcePoint" />
            <mxPoint x="334" y="206.67000000000002" as="targetPoint" />
          </mxGeometry>
        </mxCell>
        <mxCell id="LNCcRjCM3wwA3M9pp7GL-72" value="0..1" style="text;html=1;strokeColor=none;fillColor=none;align=center;verticalAlign=middle;whiteSpace=wrap;rounded=0;" parent="WIyWlLk6GJQsqaUBKTNV-1" vertex="1">
          <mxGeometry x="260" y="192" width="30" height="30" as="geometry" />
        </mxCell>
        <mxCell id="LNCcRjCM3wwA3M9pp7GL-73" value="1" style="text;html=1;strokeColor=none;fillColor=none;align=center;verticalAlign=middle;whiteSpace=wrap;rounded=0;" parent="WIyWlLk6GJQsqaUBKTNV-1" vertex="1">
          <mxGeometry x="420" y="270" width="30" height="30" as="geometry" />
        </mxCell>
        <mxCell id="LNCcRjCM3wwA3M9pp7GL-75" value="bemannt" style="text;html=1;strokeColor=none;fillColor=none;align=center;verticalAlign=middle;whiteSpace=wrap;rounded=0;" parent="WIyWlLk6GJQsqaUBKTNV-1" vertex="1">
          <mxGeometry x="430" y="340" width="80" height="30" as="geometry" />
        </mxCell>
        <mxCell id="LNCcRjCM3wwA3M9pp7GL-77" value="" style="endArrow=classic;html=1;rounded=0;elbow=vertical;strokeWidth=2;" parent="WIyWlLk6GJQsqaUBKTNV-1" edge="1">
          <mxGeometry width="50" height="50" relative="1" as="geometry">
            <mxPoint x="440" y="354.6700000000001" as="sourcePoint" />
            <mxPoint x="430" y="354.6700000000001" as="targetPoint" />
          </mxGeometry>
        </mxCell>
        <mxCell id="LNCcRjCM3wwA3M9pp7GL-78" value="1" style="text;html=1;strokeColor=none;fillColor=none;align=center;verticalAlign=middle;whiteSpace=wrap;rounded=0;" parent="WIyWlLk6GJQsqaUBKTNV-1" vertex="1">
          <mxGeometry x="220" y="230" width="30" height="30" as="geometry" />
        </mxCell>
        <mxCell id="LNCcRjCM3wwA3M9pp7GL-79" value="0..*" style="text;html=1;strokeColor=none;fillColor=none;align=center;verticalAlign=middle;whiteSpace=wrap;rounded=0;" parent="WIyWlLk6GJQsqaUBKTNV-1" vertex="1">
          <mxGeometry x="730" y="322" width="30" height="30" as="geometry" />
        </mxCell>
        <mxCell id="LNCcRjCM3wwA3M9pp7GL-81" value="{sorted}" style="text;html=1;strokeColor=none;fillColor=none;align=center;verticalAlign=middle;whiteSpace=wrap;rounded=0;" parent="WIyWlLk6GJQsqaUBKTNV-1" vertex="1">
          <mxGeometry x="90" y="430" width="60" height="30" as="geometry" />
        </mxCell>
        <mxCell id="LNCcRjCM3wwA3M9pp7GL-82" value="1" style="endArrow=open;html=1;endSize=12;startArrow=diamondThin;startSize=14;startFill=1;align=left;verticalAlign=bottom;rounded=0;strokeWidth=1;elbow=vertical;entryX=0.5;entryY=0;entryDx=0;entryDy=0;" parent="WIyWlLk6GJQsqaUBKTNV-1" target="LNCcRjCM3wwA3M9pp7GL-55" edge="1">
          <mxGeometry y="10" relative="1" as="geometry">
            <mxPoint x="180" y="410" as="sourcePoint" />
            <mxPoint x="510" y="390" as="targetPoint" />
            <mxPoint as="offset" />
          </mxGeometry>
        </mxCell>
        <mxCell id="LNCcRjCM3wwA3M9pp7GL-83" value="- einträge" style="text;html=1;strokeColor=none;fillColor=none;align=center;verticalAlign=middle;whiteSpace=wrap;rounded=0;" parent="WIyWlLk6GJQsqaUBKTNV-1" vertex="1">
          <mxGeometry x="185" y="430" width="60" height="30" as="geometry" />
        </mxCell>
        <mxCell id="-ff-DbnNnGK7nI4XW9nx-0" value="- schiff" style="text;html=1;strokeColor=none;fillColor=none;align=center;verticalAlign=middle;whiteSpace=wrap;rounded=0;" vertex="1" parent="WIyWlLk6GJQsqaUBKTNV-1">
          <mxGeometry x="260" y="170" width="60" height="30" as="geometry" />
        </mxCell>
      </root>
    </mxGraphModel>
  </diagram>
</mxfile>
